<?xml version="1.0" encoding="UTF-8"?>
<svg id="Layer_1" data-name="Layer 1" xmlns="http://www.w3.org/2000/svg" viewBox="0 0 566.93 310.87">
  <defs>
    <style>
      .cls-1 {
        fill: #050505;
      }
    </style>
  </defs>
  <g>
    <path class="cls-1" d="M91.3,211.57v-1.11c0-6.74-1.94-8.12-11.44-8.12-11.17,0-13.38,1.38-13.38,8.4,0,4.43,1.11,6.46,4.06,7.38,1.57.46,2.12.46,11.72,1.02,10.34.65,13.84,1.29,16.8,3.41,3.78,2.58,5.08,6.18,5.08,14.03s-1.11,11.81-3.78,14.49c-3.69,3.6-8.4,4.61-21.22,4.61-11.17,0-14.95-.65-19.01-3.05-2.31-1.38-4.24-4.34-4.89-7.57-.55-2.68-.65-4.52-.74-9.41h11.35c0,4.61.28,6.18,1.29,7.75,1.48,2.49,2.95,2.77,12.55,2.77,6.92,0,8.86-.28,10.61-1.66,1.57-1.11,2.21-3.51,2.21-7.75s-.92-6-3.42-6.83q-1.48-.55-11.72-1.2c-10.52-.65-12.73-1.02-15.87-2.49-4.89-2.4-6.83-6.83-6.83-15.32,0-7.29,1.57-11.81,4.89-14.21,3.78-2.86,8.58-3.69,20.02-3.69s16.52,1.2,19.56,4.61c2.4,2.68,3.51,6.37,3.51,11.72v2.21h-11.35Z"/>
    <path class="cls-1" d="M108.18,216.09v-8.31h6.55v-14.76h12.27v14.76h8.12v8.31h-8.12v25.1c0,3.14,1.57,4.71,4.71,4.71l3.69-.09v9.23c-1.91.12-4.52.18-7.84.18-3.63,0-6.68-.88-9.14-2.63-2.46-1.75-3.69-4.66-3.69-8.72v-27.78h-6.55Z"/>
    <path class="cls-1" d="M171.86,255.12c-.62-.8-1.11-2.55-1.48-5.26h-.18c-1.35,2.03-3.08,3.6-5.17,4.71-2.09,1.11-5.01,1.66-8.77,1.66-4.98,0-8.98-1.26-12-3.78-3.02-2.52-4.52-6.09-4.52-10.7s1.66-8.32,4.98-10.56c3.32-2.25,8-3.8,14.03-4.66,4.43-.61,7.44-1.25,9.04-1.89,1.6-.65,2.4-1.8,2.4-3.46s-.68-3.09-2.03-4.11c-1.35-1.02-3.32-1.52-5.91-1.52-5.72,0-8.77,2.21-9.13,6.64h-11.17c.18-4.49,2-8.21,5.44-11.17,3.45-2.95,8.43-4.43,14.95-4.43,13.29,0,19.93,5.81,19.93,17.44v24.08c0,3.57.55,5.75,1.66,6.55v.46h-12.09ZM159.31,247.46c3.45,0,6.17-.89,8.17-2.68,2-1.78,3-3.91,3-6.37v-7.11c-1.35.8-4.28,1.72-8.77,2.77-3.57.8-6.09,1.71-7.57,2.72-1.48,1.01-2.21,2.57-2.21,4.66,0,4,2.46,6,7.38,6Z"/>
    <path class="cls-1" d="M212.18,256.51c-7.32,0-13.2-2.37-17.62-7.1-4.43-4.74-6.64-10.7-6.64-17.9s2.17-13.16,6.51-17.9c4.34-4.74,10.04-7.1,17.12-7.1,5.97,0,10.83,1.57,14.58,4.71,3.75,3.14,6.06,7.35,6.92,12.64h-12.27c-.43-2.15-1.42-3.91-2.95-5.26-1.54-1.35-3.45-2.03-5.72-2.03-3.69,0-6.52,1.32-8.49,3.97-1.97,2.65-2.95,6.31-2.95,10.98s.95,8.26,2.86,10.93c1.91,2.68,4.71,4.01,8.4,4.01,5.47,0,8.64-2.68,9.5-8.03h12.09c-.43,5.23-2.55,9.55-6.37,12.96-3.82,3.41-8.8,5.12-14.95,5.12Z"/>
    <path class="cls-1" d="M270.13,255.12l-13.29-21.59-5.44,5.63v15.96h-12.46v-65.98h12.46v36.54l16.79-17.9h15.04l-17.44,17.99,19.56,29.34h-15.23Z"/>
    <path class="cls-1" d="M315.34,255.12h-11.81v-51.21h-17.81v-10.34h47.8v10.34h-18.18v51.21Z"/>
    <path class="cls-1" d="M350.22,207.78v7.57h.28c1.48-2.77,3.11-4.81,4.89-6.14,1.78-1.32,4.03-1.98,6.74-1.98,1.29,0,2.28.12,2.95.37v10.98h-.28c-4.24-.43-7.66.49-10.24,2.77-2.58,2.28-3.87,5.84-3.87,10.7v23.07h-12.55v-47.34h12.09Z"/>
    <path class="cls-1" d="M398.95,255.12c-.62-.8-1.11-2.55-1.48-5.26h-.18c-1.35,2.03-3.08,3.6-5.17,4.71-2.09,1.11-5.01,1.66-8.77,1.66-4.98,0-8.98-1.26-12-3.78-3.02-2.52-4.52-6.09-4.52-10.7s1.66-8.32,4.98-10.56c3.32-2.25,8-3.8,14.03-4.66,4.43-.61,7.44-1.25,9.04-1.89,1.6-.65,2.4-1.8,2.4-3.46s-.68-3.09-2.03-4.11c-1.35-1.02-3.32-1.52-5.91-1.52-5.72,0-8.77,2.21-9.13,6.64h-11.17c.18-4.49,2-8.21,5.44-11.17,3.45-2.95,8.43-4.43,14.95-4.43,13.29,0,19.93,5.81,19.93,17.44v24.08c0,3.57.55,5.75,1.66,6.55v.46h-12.09ZM386.4,247.46c3.45,0,6.17-.89,8.17-2.68,2-1.78,3-3.91,3-6.37v-7.11c-1.35.8-4.28,1.72-8.77,2.77-3.57.8-6.09,1.71-7.57,2.72-1.48,1.01-2.21,2.57-2.21,4.66,0,4,2.46,6,7.38,6Z"/>
    <path class="cls-1" d="M439.27,256.51c-7.32,0-13.2-2.37-17.62-7.1-4.43-4.74-6.64-10.7-6.64-17.9s2.17-13.16,6.51-17.9c4.34-4.74,10.04-7.1,17.12-7.1,5.97,0,10.83,1.57,14.58,4.71,3.75,3.14,6.06,7.35,6.92,12.64h-12.27c-.43-2.15-1.42-3.91-2.95-5.26s-3.45-2.03-5.72-2.03c-3.69,0-6.52,1.32-8.49,3.97-1.97,2.65-2.95,6.31-2.95,10.98s.95,8.26,2.86,10.93c1.91,2.68,4.71,4.01,8.4,4.01,5.47,0,8.64-2.68,9.5-8.03h12.09c-.43,5.23-2.55,9.55-6.37,12.96-3.82,3.41-8.8,5.12-14.95,5.12Z"/>
    <path class="cls-1" d="M497.22,255.12l-13.29-21.59-5.44,5.63v15.96h-12.46v-65.98h12.46v36.54l16.79-17.9h15.04l-17.44,17.99,19.56,29.34h-15.23Z"/>
    <path class="cls-1" d="M316.68,89.71h-12.06c-2.67,0-5.23-1.06-7.12-2.95l-20.46-20.41c-6.97-7.59-17.07-12.27-28.25-11.97-19.6.51-35.55,16.49-36.02,36.08,0,.31,0,.62,0,.92,0,20.44,16.57,37.01,37.01,37.01h12.54c2.67,0,5.23,1.06,7.11,2.95l22.06,22.06h0c6.66,6.41,15.7,10.35,25.67,10.35,20.54,0,37.17-16.72,37.02-37.3-.15-20.41-17.07-36.74-37.48-36.74ZM325.81,135.4c-4.78,4.79-12.55,4.79-17.33,0l-17.26-17.57c-4.4-4.41-11.54-4.41-15.94,0l-.12.11c-4.4,4.41-11.54,4.41-15.94,0-6-6-12.11-11.89-18.11-17.89-4.78-4.79-4.78-12.55,0-17.34,4.79-4.78,12.55-4.78,17.34,0,5.81,5.81,11.46,11.78,17.27,17.6,4.4,4.4,11.53,4.38,15.93-.02l.11-.11c4.41-4.41,11.54-4.41,15.95,0l18.11,17.89c4.79,4.78,4.79,12.55,0,17.33Z"/>
  </g>
  <path class="cls-1" d="M261.45,163.77h-24.54c-2.67,0-5.23-1.06-7.11-2.95l-16.38-16.38c-1.38-1.38-.4-3.75,1.55-3.75h24.42c2.65,0,5.2,1.05,7.08,2.92l16.52,16.4c1.39,1.38.41,3.75-1.55,3.75Z"/>
  <path class="cls-1" d="M351.97,77.45h-24.54c-2.67,0-5.23-1.06-7.11-2.95l-16.38-16.38c-1.38-1.38-.4-3.75,1.55-3.75h24.42c2.65,0,5.2,1.05,7.08,2.92l16.52,16.4c1.39,1.38.41,3.75-1.55,3.75Z"/>
</svg>