<?xml version="1.0" encoding="UTF-8"?><svg id="Layer_1" xmlns="http://www.w3.org/2000/svg" viewBox="0 0 348.02478 168.20524"><defs><style>.cls-1{fill:#fff;}.cls-2{fill:#050505;}</style></defs><rect class="cls-1" width="348.02478" height="168.20524"/><path class="cls-2" d="M122.32219,69.73893h-9.30642c-2.05777,0-4.03436-.82019-5.48997-2.27582l-15.77918-15.74594c-5.37921-5.85577-13.16724-9.4616-21.79392-9.23624-15.11785.39162-27.42054,12.72015-27.7863,27.83435-.0074.23645-.0074.47658-.0074.71304,0,15.76811,12.78299,28.55106,28.55108,28.55106h9.67314c2.05742,0,4.03058.81731,5.48539,2.27212l17.01318,17.01318v.0037c5.13531,4.9395,12.11427,7.97641,19.79884,7.97641,15.84566,0,28.67294-12.9012,28.55478-28.76904-.11455-15.74594-13.16724-28.33679-28.91323-28.33679ZM129.36762,104.97704c-3.6908,3.6945-9.67956,3.6945-13.37036,0l-13.31128-13.55511c-3.39522-3.39894-8.90377-3.39894-12.29899,0l-.09236.08866c-3.39522,3.39894-8.89998,3.39894-12.29899,0-4.62913-4.62922-9.3434-9.16974-13.97252-13.79894-3.6908-3.6945-3.6908-9.67959,0-13.37408,3.6945-3.6908,9.68326-3.6908,13.37406,0,4.48226,4.48231,8.84242,9.09048,13.32503,13.57255,3.39113,3.39072,8.89476,3.37761,12.28525-.01374l.08866-.08869c3.39892-3.39892,8.90368-3.39892,12.30269,0l13.96882,13.79896c3.6945,3.6908,3.6945,9.67959,0,13.37038Z"/><path class="cls-2" d="M79.71668,126.86511h-18.93206c-2.05742,0-4.03058-.81731-5.48539-2.27212l-12.63368-12.63368c-1.06628-1.06628-.3111-2.88944,1.19685-2.88944h18.83574c2.04722,0,4.01145.80925,5.46454,2.25135l12.74631,12.64993c1.07252,1.06441.31875,2.89398-1.1923,2.89398Z"/><path class="cls-2" d="M149.54508,60.27617h-18.93206c-2.05742,0-4.03058-.81731-5.48539-2.27212l-12.63366-12.63366c-1.06629-1.06629-.3111-2.88947,1.19686-2.88947h18.8357c2.04722,0,4.01145.80925,5.46454,2.25135l12.74631,12.64993c1.07252,1.06441.31875,2.89398-1.1923,2.89398Z"/><path class="cls-2" d="M188.38928,53.06548v-.67035c0-4.07805-1.17277-4.91586-6.92645-4.91586-6.75943,0-8.10012.83782-8.10012,5.08334,0,2.68138.66989,3.91102,2.45748,4.46897.94977.27987,1.28562.27987,7.09437.61482,6.25655.39092,8.37999.78184,10.16758,2.06656,2.29046,1.56459,3.0723,3.7431,3.0723,8.49104,0,4.63689-.6708,7.15035-2.29046,8.77091-2.23448,2.17851-5.08379,2.79243-12.84805,2.79243-6.75943,0-9.04988-.39092-11.50827-1.84356-1.39576-.83782-2.56943-2.62541-2.96035-4.58001-.33495-1.62056-.39092-2.73736-.4469-5.69771h6.87137c0,2.79243.16702,3.7422.78184,4.69196.89379,1.50771,1.78759,1.67564,7.59724,1.67564,4.18999,0,5.36276-.16792,6.42448-1.00574.94977-.66989,1.34069-2.12253,1.34069-4.69196,0-2.45748-.55885-3.63115-2.06746-4.13402q-.89379-.33495-7.09437-.72587c-6.3685-.39092-7.70919-.61482-9.60783-1.50861-2.96125-1.45174-4.13402-4.13312-4.13402-9.27288,0-4.41299.94977-7.15035,2.96035-8.60299,2.29046-1.73161,5.19574-2.23448,12.12219-2.23448,6.98242,0,9.99965.72632,11.84321,2.79333,1.45174,1.61966,2.12253,3.85415,2.12253,7.09437v1.34069h-6.87137Z"/><path class="cls-2" d="M198.61193,55.80284v-5.02781h3.9661v-8.2941h7.43022v8.2941h4.91586v5.02781h-4.91586v15.19449c0,1.89954.94977,2.8484,2.8484,2.8484l2.23448-.05507v5.58576c-1.15471.07403-2.73645.11195-4.74794.11195-2.19747,0-4.04103-.53086-5.53068-1.59258-1.48966-1.06082-2.23448-2.82041-2.23448-5.2788v-16.81415h-3.9661Z"/><path class="cls-2" d="M237.15609,79.43239c-.37287-.48391-.66989-1.54473-.89379-3.18425h-.11195c-.81886,1.22874-1.86252,2.17851-3.12828,2.8493-1.26576.66989-3.03529,1.00574-5.30679,1.00574-3.01633,0-5.43769-.76288-7.26139-2.29046-1.82551-1.52667-2.73736-3.68712-2.73736-6.48045,0-2.90438,1.00484-5.03594,3.01633-6.39559,2.01058-1.35965,4.84093-2.29949,8.49104-2.82132,2.68138-.37196,4.50598-.75386,5.47471-1.14568.96782-.39092,1.45174-1.0888,1.45174-2.09455,0-1.04186-.40988-1.87155-1.22874-2.48547-.81976-.61482-2.01058-.92178-3.57517-.92178-3.46322,0-5.30679,1.34069-5.52978,4.02207h-6.75943c.11105-2.7184,1.20978-4.97184,3.2953-6.75988,2.08552-1.78759,5.10184-2.68138,9.04988-2.68138,8.04414,0,12.06621,3.51965,12.06621,10.55805v14.57967c0,2.16045.33495,3.48309,1.00574,3.967v.27897h-7.31827ZM229.55884,74.7955c2.08552,0,3.73317-.53898,4.94385-1.61966,1.20978-1.07977,1.81557-2.36449,1.81557-3.85415v-4.30194c-.81976.48482-2.58839,1.04366-5.30679,1.67654-2.16045.48391-3.68712,1.03283-4.58092,1.64765-.89379.61392-1.34069,1.55556-1.34069,2.82041,0,2.42137,1.48966,3.63115,4.46897,3.63115Z"/><path class="cls-2" d="M261.56748,80.27021c-4.43285,0-7.98817-1.43278-10.66955-4.30104-2.68138-2.86736-4.02207-6.48045-4.02207-10.83747s1.3127-7.96921,3.93811-10.83747c2.62541-2.86736,6.0796-4.30104,10.36259-4.30104,3.61129,0,6.55358.94932,8.82598,2.84885,2.2715,1.89909,3.66726,4.45046,4.18999,7.65367h-7.43022c-.26092-1.30367-.85678-2.36539-1.78759-3.18425s-2.08552-1.22964-3.46322-1.22964c-2.23448,0-3.94804.80171-5.13976,2.40241-1.19172,1.60161-1.78759,3.81803-1.78759,6.64748,0,2.79333.5769,4.99983,1.73251,6.61949,1.15381,1.62056,2.8484,2.4304,5.08289,2.4304,3.31426,0,5.23185-1.62056,5.75368-4.85989h7.31827c-.26092,3.16529-1.54563,5.78167-3.85415,7.84823-2.31032,2.06656-5.32665,3.10029-9.04988,3.10029Z"/><path class="cls-2" d="M296.64797,79.43239l-8.04414-13.07195-3.2953,3.40815v9.6638h-7.54082v-36.95146h7.54082v19.13157l10.16667-10.83747h9.10586l-10.5585,10.89345,11.84321,17.76392h-9.21781Z"/><path class="cls-2" d="M186.54436,126.0273h-7.15035v-31.00334h-10.7815v-6.25655h28.93724v6.25655h-11.00539v31.00334Z"/><path class="cls-2" d="M207.65955,97.36993v4.58092h.16792c.89379-1.67564,1.87967-2.91386,2.96035-3.71511,1.07977-.80035,2.43852-1.20075,4.07805-1.20075.78184,0,1.37771.07493,1.78759.22345v6.64793h-.16792c-2.56943-.26001-4.63599.29793-6.20058,1.67564-1.56369,1.37861-2.34553,3.53816-2.34553,6.47955v13.96575h-7.59724v-28.65736h7.31737Z"/><path class="cls-2" d="M237.15473,126.0273c-.37287-.48391-.66989-1.54473-.89379-3.18425h-.11195c-.81886,1.22874-1.86252,2.17851-3.12828,2.8493-1.26576.66989-3.03529,1.00574-5.30679,1.00574-3.01633,0-5.43769-.76288-7.26139-2.29046-1.82551-1.52667-2.73736-3.68712-2.73736-6.48045,0-2.90438,1.00484-5.03594,3.01633-6.39559,2.01058-1.35965,4.84093-2.29949,8.49104-2.82132,2.68138-.37196,4.50598-.75386,5.47471-1.14568.96782-.39092,1.45174-1.0888,1.45174-2.09455,0-1.04186-.40988-1.87155-1.22874-2.48547-.81976-.61482-2.01058-.92178-3.57517-.92178-3.46322,0-5.30679,1.34069-5.52978,4.02207h-6.75943c.11105-2.7184,1.20978-4.97184,3.2953-6.75988,2.08552-1.78759,5.10184-2.68138,9.04988-2.68138,8.04414,0,12.06621,3.51965,12.06621,10.55805v14.57967c0,2.16045.33495,3.48309,1.00574,3.967v.27897h-7.31827ZM229.55749,121.3904c2.08552,0,3.73317-.53898,4.94385-1.61966,1.20978-1.07977,1.81557-2.36449,1.81557-3.85415v-4.30194c-.81976.48482-2.58839,1.04366-5.30679,1.67654-2.16045.48391-3.68712,1.03283-4.58092,1.64765-.89379.61392-1.34069,1.55556-1.34069,2.82041,0,2.42137,1.48966,3.63115,4.46897,3.63115Z"/><path class="cls-2" d="M261.56703,126.86511c-4.43285,0-7.98817-1.43278-10.66955-4.30104-2.68138-2.86736-4.02207-6.48045-4.02207-10.83747s1.3127-7.96921,3.93811-10.83747c2.62541-2.86736,6.0796-4.30104,10.36259-4.30104,3.61129,0,6.55358.94932,8.82598,2.84885,2.2715,1.89909,3.66726,4.45046,4.18999,7.65367h-7.43022c-.26092-1.30367-.85678-2.36539-1.78759-3.18425s-2.08552-1.22964-3.46322-1.22964c-2.23448,0-3.94804.80171-5.13976,2.40241-1.19172,1.60161-1.78759,3.81803-1.78759,6.64748,0,2.79333.5769,4.99983,1.73251,6.61949,1.15381,1.62056,2.8484,2.4304,5.08289,2.4304,3.31426,0,5.23185-1.62056,5.75368-4.85989h7.31827c-.26092,3.16529-1.54563,5.78167-3.85415,7.84823-2.31032,2.06656-5.32665,3.10029-9.04988,3.10029Z"/><path class="cls-2" d="M296.64797,126.0273l-8.04414-13.07195-3.2953,3.40815v9.6638h-7.54127v-37.93793h7.54127v20.11804l10.16667-10.83747h9.10586l-10.5585,10.89345,11.84321,17.76392h-9.21781Z"/></svg>