<?xml version="1.0" encoding="UTF-8"?>
<svg id="Layer_1" data-name="Layer 1" xmlns="http://www.w3.org/2000/svg" viewBox="0 0 567 167">
  <defs>
    <style>
      .cls-1 {
        fill: #fff;
      }
    </style>
  </defs>
  <path class="cls-1" d="M203.19,74.68v-.85c0-5.15-1.48-6.21-8.74-6.21-8.53,0-10.23,1.06-10.23,6.42,0,3.38.85,4.94,3.1,5.64,1.2.35,1.62.35,8.96.78,7.9.49,10.58.99,12.84,2.61,2.89,1.98,3.88,4.73,3.88,10.72s-.85,9.03-2.89,11.07c-2.82,2.75-6.42,3.53-16.22,3.53-8.53,0-11.42-.49-14.53-2.33-1.76-1.06-3.24-3.31-3.74-5.78-.42-2.05-.49-3.46-.56-7.19h8.67c0,3.53.21,4.72.99,5.92,1.13,1.9,2.26,2.12,9.59,2.12,5.29,0,6.77-.21,8.11-1.27,1.2-.85,1.69-2.68,1.69-5.92s-.71-4.58-2.61-5.22q-1.13-.42-8.96-.92c-8.04-.49-9.73-.78-12.13-1.9-3.74-1.83-5.22-5.22-5.22-11.71,0-5.57,1.2-9.03,3.74-10.86,2.89-2.19,6.56-2.82,15.3-2.82s12.62.92,14.95,3.53c1.83,2.04,2.68,4.87,2.68,8.96v1.69h-8.67Z"/>
  <path class="cls-1" d="M216.09,78.14v-6.35h5.01v-11.28h9.38v11.28h6.21v6.35h-6.21v19.18c0,2.4,1.2,3.6,3.6,3.6l2.82-.07v7.05c-1.46.09-3.45.14-5.99.14-2.77,0-5.1-.67-6.98-2.01-1.88-1.34-2.82-3.56-2.82-6.66v-21.23h-5.01Z"/>
  <path class="cls-1" d="M264.75,107.97c-.47-.61-.85-1.95-1.13-4.02h-.14c-1.03,1.55-2.35,2.75-3.95,3.6-1.6.85-3.83,1.27-6.7,1.27-3.81,0-6.86-.96-9.17-2.89-2.3-1.93-3.46-4.65-3.46-8.18s1.27-6.36,3.81-8.07c2.54-1.72,6.11-2.9,10.72-3.56,3.38-.47,5.69-.95,6.91-1.45,1.22-.49,1.83-1.37,1.83-2.64s-.52-2.36-1.55-3.14c-1.03-.78-2.54-1.16-4.51-1.16-4.37,0-6.7,1.69-6.98,5.08h-8.53c.14-3.43,1.53-6.28,4.16-8.53,2.63-2.26,6.44-3.38,11.42-3.38,10.15,0,15.23,4.44,15.23,13.33v18.41c0,2.73.42,4.4,1.27,5.01v.35h-9.24ZM255.16,102.12c2.63,0,4.71-.68,6.24-2.04,1.53-1.36,2.29-2.98,2.29-4.87v-5.43c-1.03.61-3.27,1.32-6.7,2.12-2.73.61-4.65,1.3-5.78,2.08-1.13.78-1.69,1.96-1.69,3.56,0,3.06,1.88,4.58,5.64,4.58Z"/>
  <path class="cls-1" d="M295.56,109.03c-5.6,0-10.08-1.81-13.47-5.43-3.38-3.62-5.08-8.18-5.08-13.68s1.66-10.06,4.97-13.68c3.31-3.62,7.67-5.43,13.08-5.43,4.56,0,8.27,1.2,11.14,3.6,2.87,2.4,4.63,5.62,5.29,9.66h-9.38c-.33-1.65-1.08-2.99-2.26-4.02-1.18-1.03-2.63-1.55-4.37-1.55-2.82,0-4.98,1.01-6.49,3.03-1.5,2.02-2.26,4.82-2.26,8.39s.73,6.31,2.19,8.36c1.46,2.05,3.6,3.07,6.42,3.07,4.18,0,6.6-2.05,7.26-6.14h9.24c-.33,4-1.95,7.3-4.87,9.91-2.92,2.61-6.72,3.91-11.42,3.91Z"/>
  <path class="cls-1" d="M339.85,107.97l-10.15-16.5-4.16,4.3v12.2h-9.52v-50.42h9.52v27.93l12.83-13.68h11.5l-13.33,13.75,14.95,22.42h-11.64Z"/>
  <path class="cls-1" d="M374.4,107.97h-9.03v-39.14h-13.61v-7.9h36.53v7.9h-13.89v39.14Z"/>
  <path class="cls-1" d="M401.06,71.79v5.78h.21c1.13-2.12,2.37-3.68,3.74-4.69,1.36-1.01,3.08-1.52,5.15-1.52.99,0,1.74.09,2.26.28v8.39h-.21c-3.24-.33-5.85.38-7.83,2.12-1.97,1.74-2.96,4.47-2.96,8.18v17.63h-9.59v-36.18h9.24Z"/>
  <path class="cls-1" d="M438.29,107.97c-.47-.61-.85-1.95-1.13-4.02h-.14c-1.03,1.55-2.35,2.75-3.95,3.6-1.6.85-3.83,1.27-6.7,1.27-3.81,0-6.86-.96-9.17-2.89-2.3-1.93-3.46-4.65-3.46-8.18s1.27-6.36,3.81-8.07c2.54-1.72,6.11-2.9,10.72-3.56,3.38-.47,5.69-.95,6.91-1.45,1.22-.49,1.83-1.37,1.83-2.64s-.52-2.36-1.55-3.14c-1.03-.78-2.54-1.16-4.51-1.16-4.37,0-6.7,1.69-6.98,5.08h-8.53c.14-3.43,1.53-6.28,4.16-8.53,2.63-2.26,6.44-3.38,11.42-3.38,10.15,0,15.23,4.44,15.23,13.33v18.41c0,2.73.42,4.4,1.27,5.01v.35h-9.24ZM428.7,102.12c2.63,0,4.71-.68,6.24-2.04,1.53-1.36,2.29-2.98,2.29-4.87v-5.43c-1.03.61-3.27,1.32-6.7,2.12-2.73.61-4.65,1.3-5.78,2.08-1.13.78-1.69,1.96-1.69,3.56,0,3.06,1.88,4.58,5.64,4.58Z"/>
  <path class="cls-1" d="M469.11,109.03c-5.6,0-10.08-1.81-13.47-5.43-3.38-3.62-5.08-8.18-5.08-13.68s1.66-10.06,4.97-13.68c3.31-3.62,7.67-5.43,13.08-5.43,4.56,0,8.27,1.2,11.14,3.6,2.87,2.4,4.63,5.62,5.29,9.66h-9.38c-.33-1.65-1.08-2.99-2.26-4.02s-2.63-1.55-4.37-1.55c-2.82,0-4.98,1.01-6.49,3.03-1.5,2.02-2.26,4.82-2.26,8.39s.73,6.31,2.19,8.36c1.46,2.05,3.6,3.07,6.42,3.07,4.18,0,6.6-2.05,7.26-6.14h9.24c-.33,4-1.95,7.3-4.87,9.91-2.92,2.61-6.72,3.91-11.42,3.91Z"/>
  <path class="cls-1" d="M513.4,107.97l-10.15-16.5-4.16,4.3v12.2h-9.52v-50.42h9.52v27.93l12.83-13.68h11.5l-13.33,13.75,14.95,22.42h-11.64Z"/>
  <path class="cls-1" d="M120.89,68.59h-9.22c-2.04,0-4-.81-5.44-2.25l-15.63-15.6c-5.33-5.8-13.04-9.37-21.59-9.15-14.98.39-27.17,12.6-27.53,27.58,0,.23,0,.47,0,.71,0,15.62,12.66,28.29,28.29,28.29h9.58c2.04,0,3.99.81,5.43,2.25l16.85,16.85h0c5.09,4.9,12,7.91,19.61,7.91,15.7,0,28.41-12.78,28.29-28.5-.11-15.6-13.04-28.07-28.64-28.07ZM127.87,103.5c-3.66,3.66-9.59,3.66-13.25,0l-13.19-13.43c-3.36-3.37-8.82-3.37-12.18,0l-.09.09c-3.36,3.37-8.82,3.37-12.18,0-4.59-4.59-9.26-9.08-13.84-13.67-3.66-3.66-3.66-9.59,0-13.25,3.66-3.66,9.59-3.66,13.25,0,4.44,4.44,8.76,9.01,13.2,13.45,3.36,3.36,8.81,3.35,12.17-.01l.09-.09c3.37-3.37,8.82-3.37,12.19,0l13.84,13.67c3.66,3.66,3.66,9.59,0,13.25Z"/>
  <path class="cls-1" d="M78.68,125.18h-18.76c-2.04,0-3.99-.81-5.43-2.25l-12.52-12.52c-1.06-1.06-.31-2.86,1.19-2.86h18.66c2.03,0,3.97.8,5.41,2.23l12.63,12.53c1.06,1.05.32,2.87-1.18,2.87Z"/>
  <path class="cls-1" d="M147.86,59.21h-18.76c-2.04,0-3.99-.81-5.43-2.25l-12.52-12.52c-1.06-1.06-.31-2.86,1.19-2.86h18.66c2.03,0,3.97.8,5.41,2.23l12.63,12.53c1.06,1.05.32,2.87-1.18,2.87Z"/>
</svg>