<?xml version="1.0" encoding="UTF-8"?><svg id="Layer_1" xmlns="http://www.w3.org/2000/svg" viewBox="0 0 193.40008 247.33103"><defs><style>.cls-1{fill:#fff;opacity:0}.cls-2{fill:#253bfa;}</style></defs><g id="StackTrack-logo"><rect class="cls-1" width="193.40008" height="247.33103"/><path class="cls-2" d="M122.32219,69.42201h-9.30642c-2.05777,0-4.03436-.82019-5.48997-2.27582l-15.77918-15.74594c-5.37921-5.85577-13.16724-9.4616-21.79392-9.23624-15.11785.39162-27.42054,12.72015-27.7863,27.83435-.0074.23645-.0074.47658-.0074.71304,0,15.76811,12.78299,28.55106,28.55108,28.55106h9.67314c2.05742,0,4.03058.81731,5.48539,2.27212l17.01318,17.01318v.0037c5.13531,4.9395,12.11427,7.97641,19.79884,7.97641,15.84566,0,28.67294-12.9012,28.55478-28.76904-.11455-15.74594-13.16724-28.33679-28.91323-28.33679ZM129.36762,104.66012c-3.6908,3.6945-9.67956,3.6945-13.37036,0l-13.31128-13.55511c-3.39522-3.39894-8.90377-3.39894-12.29899,0l-.09236.08866c-3.39522,3.39894-8.89998,3.39894-12.29899,0-4.62913-4.62922-9.3434-9.16974-13.97252-13.79894-3.6908-3.6945-3.6908-9.67959,0-13.37408,3.6945-3.6908,9.68326-3.6908,13.37406,0,4.48226,4.48231,8.84242,9.09048,13.32503,13.57255,3.39113,3.39072,8.89476,3.37761,12.28525-.01374l.08866-.08869c3.39892-3.39892,8.90368-3.39892,12.30269,0l13.96882,13.79896c3.6945,3.6908,3.6945,9.67959,0,13.37038Z"/><path class="cls-2" d="M79.71668,126.54819h-18.93206c-2.05742,0-4.03058-.81731-5.48539-2.27212l-12.63368-12.63368c-1.06628-1.06628-.3111-2.88944,1.19685-2.88944h18.83574c2.04722,0,4.01145.80925,5.46454,2.25135l12.74631,12.64993c1.07252,1.06441.31875,2.89398-1.1923,2.89398Z"/><path class="cls-2" d="M149.54508,59.95925h-18.93206c-2.05742,0-4.03058-.81731-5.48539-2.27212l-12.63366-12.63366c-1.06629-1.06629-.3111-2.88947,1.19686-2.88947h18.8357c2.04722,0,4.01145.80925,5.46454,2.25135l12.74631,12.64993c1.07252,1.06441.31875,2.89398-1.1923,2.89398Z"/><path d="M59.56014,147.5854v-.52312c0-3.18242-.9152-3.83623-5.40525-3.83623-5.27491,0-6.32115.65382-6.32115,3.96692,0,2.09249.52277,3.05208,1.91776,3.48748.74118.21841,1.00327.21841,5.53629.47979,4.88248.30507,6.53956.61013,7.93455,1.6127,1.78742,1.22097,2.39756,2.92103,2.39756,6.62622,0,3.61853-.52347,5.57997-1.78742,6.84463-1.74374,1.70006-3.96728,2.17915-10.02634,2.17915-5.27491,0-7.06233-.30507-8.9808-1.43868-1.08922-.65382-2.00513-2.04881-2.31019-3.57414-.26139-1.26465-.30507-2.13617-.34875-4.44637h5.36227c0,2.17915.13034,2.92033.61013,3.66151.6975,1.17659,1.39499,1.30763,5.92872,1.30763,3.26978,0,4.18498-.13104,5.01352-.78486.74118-.52277,1.04625-1.65638,1.04625-3.66151,0-1.91776-.43611-2.83367-1.6134-3.2261q-.6975-.26139-5.53629-.56645c-4.96984-.30507-6.01609-.47979-7.49774-1.17729-2.3109-1.1329-3.2261-3.22539-3.2261-7.23635,0-3.4438.74118-5.57997,2.31019-6.71358,1.78742-1.35131,4.05464-1.74374,9.45989-1.74374,5.44893,0,7.80351.5668,9.24218,2.17985,1.1329,1.26395,1.65638,3.00769,1.65638,5.53629v1.04625h-5.36227Z"/><path d="M67.53767,149.72157v-3.9236h3.09505v-6.47253h5.79838v6.47253h3.83623v3.9236h-3.83623v11.85744c0,1.48236.74118,2.22283,2.22283,2.22283l1.74374-.04298v4.359c-.90111.05777-2.13547.08736-3.70519.08736-1.71486,0-3.15353-.41427-4.31603-1.24281-1.16249-.82784-1.74374-2.20099-1.74374-4.11946v-13.12139h-3.09505Z"/><path d="M97.61669,168.16156c-.29098-.37763-.52277-1.20547-.6975-2.48492h-.08736c-.63902.95888-1.45347,1.70006-2.44124,2.22354-.98777.52277-2.36867.78486-4.1413.78486-2.35388,0-4.24346-.59534-5.66663-1.78742-1.42458-1.19138-2.13617-2.87735-2.13617-5.0572,0-2.26651.78416-3.92994,2.35388-4.99098,1.56902-1.06104,3.77776-1.79447,6.62622-2.20169,2.09249-.29027,3.51637-.58829,4.27234-.89406.75527-.30507,1.1329-.84968,1.1329-1.63454,0-.81304-.31986-1.46052-.95888-1.9396-.63972-.47979-1.56902-.71934-2.78999-.71934-2.70262,0-4.1413,1.04625-4.31532,3.13874h-5.27491c.08666-2.12138.94409-3.87991,2.57158-5.27526,1.62749-1.39499,3.98137-2.09249,7.06233-2.09249,6.27747,0,9.41621,2.74666,9.41621,8.23927v11.37765c0,1.68597.26139,2.71812.78486,3.09576v.2177h-5.71102ZM91.68797,164.54303c1.62749,0,2.91328-.42061,3.85807-1.26395.94409-.84263,1.41683-1.8452,1.41683-3.00769v-3.35714c-.63972.37834-2.01992.81445-4.1413,1.30833-1.68597.37763-2.87735.806-3.57485,1.28579-.6975.47909-1.04625,1.21393-1.04625,2.20099,0,1.88958,1.16249,2.83367,3.48748,2.83367Z"/><path d="M116.66681,168.81537c-3.4593,0-6.23379-1.11811-8.32628-3.35644-2.09249-2.23763-3.13874-5.0572-3.13874-8.45732s1.0244-6.21899,3.07321-8.45732c2.04881-2.23763,4.74439-3.35644,8.08674-3.35644,2.81817,0,5.11427.74083,6.8876,2.22318,1.77263,1.482,2.86185,3.47304,3.26978,5.97276h-5.79838c-.20361-1.01736-.66861-1.8459-1.39499-2.48492s-1.62749-.95959-2.70262-.95959c-1.74374,0-3.08096.62563-4.01096,1.87479-.93,1.24986-1.39499,2.97951-1.39499,5.18754,0,2.17985.4502,3.90175,1.35202,5.1657.9004,1.26465,2.22283,1.89663,3.96657,1.89663,2.58637,0,4.08282-1.26465,4.49005-3.79255h5.71102c-.20361,2.47012-1.20618,4.51189-3.00769,6.12459-1.80292,1.6127-4.1568,2.4194-7.06233,2.4194Z"/><path d="M144.04285,168.16156l-6.27747-10.20107-2.57158,2.65965v7.54142h-5.88469v-28.83611h5.88469v14.92986l7.93385-8.45732h7.10601l-8.23962,8.50101,9.24218,13.86257h-7.19338Z"/><path d="M58.12041,204.5232h-5.57997v-24.19433h-8.41364v-4.88248h22.58199v4.88248h-8.58837v24.19433Z"/><path d="M74.59824,182.15962v3.57485h.13104c.6975-1.30763,1.46686-2.27391,2.31019-2.89919.84263-.62458,1.90297-.93704,3.18242-.93704.61013,0,1.07513.05848,1.39499.17437v5.1879h-.13104c-2.00513-.20291-3.61782.2325-4.8388,1.30763-1.22027,1.07584-1.8304,2.7611-1.8304,5.0565v10.89856h-5.92872v-22.36358h5.71031Z"/><path d="M97.61564,204.5232c-.29098-.37763-.52277-1.20547-.6975-2.48492h-.08736c-.63902.95888-1.45347,1.70006-2.44124,2.22354-.98777.52277-2.36867.78486-4.1413.78486-2.35388,0-4.24346-.59534-5.66663-1.78742-1.42458-1.19138-2.13617-2.87735-2.13617-5.0572,0-2.26651.78416-3.92994,2.35388-4.99098,1.56902-1.06104,3.77776-1.79447,6.62622-2.20169,2.09249-.29027,3.51637-.58829,4.27234-.89406.75527-.30507,1.1329-.84968,1.1329-1.63454,0-.81304-.31986-1.46052-.95888-1.9396-.63972-.47979-1.56902-.71934-2.78999-.71934-2.70262,0-4.1413,1.04625-4.31532,3.13874h-5.27491c.08666-2.12138.94409-3.87991,2.57158-5.27526,1.62749-1.39499,3.98137-2.09249,7.06233-2.09249,6.27747,0,9.41621,2.74666,9.41621,8.23927v11.37765c0,1.68597.26139,2.71812.78486,3.09576v.2177h-5.71102ZM91.68691,200.90467c1.62749,0,2.91328-.42061,3.85807-1.26395.94409-.84263,1.41683-1.8452,1.41683-3.00769v-3.35714c-.63972.37834-2.01992.81445-4.1413,1.30833-1.68597.37763-2.87735.806-3.57485,1.28579-.6975.47909-1.04625,1.21393-1.04625,2.20099,0,1.88958,1.16249,2.83367,3.48748,2.83367Z"/><path d="M116.66646,205.17702c-3.4593,0-6.23379-1.11811-8.32628-3.35644-2.09249-2.23763-3.13874-5.0572-3.13874-8.45732s1.0244-6.21899,3.07321-8.45732c2.04881-2.23763,4.74439-3.35644,8.08674-3.35644,2.81817,0,5.11427.74083,6.8876,2.22318,1.77263,1.482,2.86185,3.47304,3.26978,5.97276h-5.79838c-.20361-1.01736-.66861-1.8459-1.39499-2.48492s-1.62749-.95959-2.70262-.95959c-1.74374,0-3.08096.62563-4.01096,1.87479-.93,1.24986-1.39499,2.97951-1.39499,5.18754,0,2.17985.4502,3.90175,1.35202,5.1657.9004,1.26465,2.22283,1.89663,3.96657,1.89663,2.58637,0,4.08282-1.26465,4.49005-3.79255h5.71102c-.20361,2.47012-1.20618,4.51189-3.00769,6.12459-1.80292,1.6127-4.1568,2.4194-7.06233,2.4194Z"/><path d="M144.04285,204.5232l-6.27747-10.20107-2.57158,2.65965v7.54142h-5.88504v-29.60593h5.88504v15.69968l7.93385-8.45732h7.10601l-8.23962,8.50101,9.24218,13.86257h-7.19338Z"/></g></svg>