<?xml version="1.0" encoding="UTF-8"?>
<svg xmlns="http://www.w3.org/2000/svg" viewBox="0 0 193.39 168.32">
  <defs>
    <style>
      .cls-1 {
        fill: #b1b3b6;
      }

      .cls-2 {
        fill: #fff;
      }

      .cls-3 {
        fill: #050505;
      }
    </style>
  </defs>
  <g id="WONT_EXPORT" data-name="WONT EXPORT">
    <g id="logomark_fullcolor_rgb">
      <rect id="WONT_EXPORT-2" data-name="WONT EXPORT" class="cls-1" x="-5618.3" y="-4123.86" width="9669.63" height="8416.03"/>
    </g>
  </g>
  <g id="Layer_1" data-name="Layer 1">
    <rect class="cls-3" width="193.39" height="168.32"/>
    <g>
      <path class="cls-2" d="M122.31,69.42h-9.31c-2.06,0-4.03-.82-5.49-2.28l-15.78-15.75c-5.38-5.86-13.17-9.46-21.79-9.24-15.12.39-27.42,12.72-27.79,27.83,0,.24,0,.48,0,.71,0,15.77,12.78,28.55,28.55,28.55h9.67c2.06,0,4.03.82,5.49,2.27l17.01,17.01h0c5.14,4.94,12.11,7.98,19.8,7.98,15.85,0,28.67-12.9,28.55-28.77-.11-15.75-13.17-28.34-28.91-28.34ZM129.36,104.66c-3.69,3.69-9.68,3.69-13.37,0l-13.31-13.56c-3.4-3.4-8.9-3.4-12.3,0l-.09.09c-3.4,3.4-8.9,3.4-12.3,0-4.63-4.63-9.34-9.17-13.97-13.8-3.69-3.69-3.69-9.68,0-13.37,3.69-3.69,9.68-3.69,13.37,0,4.48,4.48,8.84,9.09,13.33,13.57,3.39,3.39,8.89,3.38,12.29-.01l.09-.09c3.4-3.4,8.9-3.4,12.3,0l13.97,13.8c3.69,3.69,3.69,9.68,0,13.37Z"/>
      <path class="cls-2" d="M79.71,126.54h-18.93c-2.06,0-4.03-.82-5.49-2.27l-12.63-12.63c-1.07-1.07-.31-2.89,1.2-2.89h18.84c2.05,0,4.01.81,5.46,2.25l12.75,12.65c1.07,1.06.32,2.89-1.19,2.89Z"/>
      <path class="cls-2" d="M149.54,59.95h-18.93c-2.06,0-4.03-.82-5.49-2.27l-12.63-12.63c-1.07-1.07-.31-2.89,1.2-2.89h18.84c2.05,0,4.01.81,5.46,2.25l12.75,12.65c1.07,1.06.32,2.89-1.19,2.89Z"/>
    </g>
  </g>
</svg>